<?xml version="1.0" encoding="UTF-8" standalone="no"?> <svg id="Capa_1" enable-background="new 0 0 512 512" height="512" viewBox="0 0 512 512" width="512" xmlns="http://www.w3.org/2000/svg"><g fill='white'><path d="m511.773 431.882-62.514-354.531c-1.12-6.354-6.091-11.045-12.09-12.138l.003-.015-356.973-64.956c-3.927-.713-7.979.167-11.256 2.447-3.276 2.281-5.509 5.774-6.202 9.706l-62.513 354.531c-.69 3.917.203 7.949 2.485 11.208 2.281 3.259 5.765 5.478 9.683 6.168l98.018 17.283 17.283 98.019c.691 3.918 2.91 7.401 6.169 9.683 2.539 1.778 5.546 2.713 8.604 2.713.867 0 1.739-.075 2.604-.228l354.531-62.513c3.918-.69 7.401-2.91 9.683-6.168 2.282-3.259 3.175-7.291 2.485-11.209zm-422.106-399.424 259.755 47.266-272.07 47.973c-1.734.306-3.335.912-4.784 1.733zm-57.29 324.905 35.12-199.172 37.373 211.954zm122.259 122.26-57.303-324.986 324.987-57.304 57.304 324.986z"/><path d="m162.487 265 236.355-41.676c8.158-1.438 13.606-9.218 12.168-17.376-1.438-8.159-9.212-13.605-17.377-12.167l-236.355 41.676c-8.158 1.438-13.606 9.218-12.168 17.376 1.283 7.278 7.612 12.398 14.755 12.398.864-.001 1.741-.076 2.622-.231z"/><path d="m404.051 252.868-236.355 41.676c-8.158 1.438-13.606 9.218-12.168 17.376 1.283 7.278 7.612 12.398 14.755 12.398.864 0 1.741-.075 2.622-.23l236.355-41.676c8.158-1.438 13.606-9.218 12.168-17.376-1.438-8.159-9.213-13.606-17.377-12.168z"/><path d="m335.685 325.849-157.569 27.784c-8.158 1.438-13.606 9.218-12.168 17.376 1.283 7.278 7.612 12.398 14.755 12.398.864 0 1.741-.075 2.622-.23l157.569-27.784c8.158-1.438 13.606-9.218 12.168-17.377-1.439-8.158-9.213-13.606-17.377-12.167z"/></g></svg>